<?xml version="1.0" standalone="no"?>
<!DOCTYPE svg PUBLIC "-//W3C//DTD SVG 20010904//EN"
 "http://www.w3.org/TR/2001/REC-SVG-20010904/DTD/svg10.dtd">
<svg version="1.0" xmlns="http://www.w3.org/2000/svg"
 width="1024.000000pt" height="1024.000000pt" viewBox="0 0 1024.000000 1024.000000"
 preserveAspectRatio="xMidYMid meet">
<rect width="1024.000000pt" height="1024.000000pt" fill="#FCD733" />
<g transform="translate(0.000000,1024.000000) scale(0.100000,-0.100000)"
fill="#000000" stroke="none">
<path d="M4180 9426 c-3 -2 -27 -6 -55 -9 -95 -9 -367 -97 -487 -158 -45 -23
-123 -57 -173 -76 -203 -79 -344 -170 -470 -305 -85 -90 -106 -117 -220 -278
-167 -236 -247 -317 -486 -493 -113 -83 -146 -129 -189 -267 -35 -111 -34
-225 2 -303 32 -68 49 -70 60 -6 23 137 33 171 68 245 54 111 102 169 222 265
138 110 140 102 23 -176 -123 -290 -159 -404 -180 -569 -6 -43 -7 -221 -2
-301 2 -25 -5 -34 -48 -63 -27 -19 -88 -53 -135 -75 l-85 -42 -121 0 c-120 1
-123 1 -198 38 -56 28 -85 50 -111 84 -33 43 -35 44 -35 19 0 -30 58 -148 92
-188 38 -44 106 -86 175 -109 58 -19 81 -21 204 -17 159 5 154 9 100 -82 -59
-97 -130 -259 -147 -330 -22 -99 -31 -383 -14 -464 16 -80 82 -204 135 -256
25 -24 47 -42 49 -39 3 2 -1 33 -9 69 -41 202 -42 360 -4 590 40 237 92 347
360 760 60 92 101 169 128 241 36 92 81 162 95 148 10 -9 -75 -325 -102 -383
-16 -33 -59 -108 -96 -166 -89 -139 -182 -329 -200 -410 -9 -36 -25 -96 -36
-135 -55 -192 -68 -415 -31 -569 27 -112 73 -225 122 -297 32 -48 36 -59 26
-77 -68 -123 -164 -289 -222 -387 -82 -138 -154 -266 -215 -380 -23 -44 -62
-114 -85 -155 -78 -137 -74 -106 -68 -674 l5 -506 -91 0 -91 0 0 -87 c0 -49 7
-146 15 -218 21 -185 20 -241 -5 -262 -11 -10 -20 -21 -20 -26 0 -15 1164 8
1240 25 25 5 59 12 75 15 17 3 33 11 37 17 9 14 8 94 17 -805 5 -416 11 -761
15 -768 5 -8 102 -11 338 -11 l331 0 -7 67 c-9 89 -52 387 -77 538 -32 193
-47 286 -54 350 -11 92 -13 107 -21 155 -4 25 -8 52 -9 60 -1 8 -14 85 -28
170 -14 85 -28 178 -31 205 -3 28 -15 102 -26 165 -11 63 -29 171 -40 240 -11
69 -24 143 -29 164 -10 40 -7 56 9 56 8 0 83 34 291 133 52 25 141 64 199 87
134 54 170 73 195 100 19 22 19 22 -5 41 -14 10 -56 32 -95 48 -38 16 -114 52
-167 80 l-97 50 43 58 c45 60 66 78 225 201 87 67 121 85 121 64 0 -13 -53
-83 -80 -107 -33 -29 -75 -95 -90 -138 -11 -37 -11 -40 15 -67 15 -15 79 -51
143 -80 131 -59 145 -68 135 -84 -4 -6 -17 -58 -28 -116 l-21 -105 -65 -13
c-45 -9 -134 -47 -306 -133 -134 -67 -244 -126 -244 -133 -2 -17 -1 -22 16
-136 14 -95 37 -262 50 -365 3 -22 16 -110 30 -195 22 -139 64 -434 80 -565 4
-27 13 -93 21 -145 8 -52 17 -111 20 -130 2 -19 11 -80 18 -135 8 -55 17 -122
21 -150 3 -27 13 -78 20 -113 8 -35 15 -76 15 -93 l0 -29 219 0 218 0 7 78 c4
42 11 172 16 287 12 264 26 472 45 645 16 149 18 177 40 460 29 374 126 1279
150 1400 15 74 61 182 80 187 11 3 22 -20 59 -127 13 -36 39 -95 57 -130 41
-79 45 -148 17 -285 -10 -49 -29 -169 -43 -265 -27 -185 -68 -435 -110 -665
-13 -77 -34 -196 -45 -265 -11 -69 -32 -190 -46 -270 -15 -80 -28 -153 -30
-162 -1 -9 -12 -101 -23 -205 -12 -103 -26 -222 -31 -263 -16 -134 -34 -396
-27 -413 5 -14 20 -17 75 -17 l68 0 18 197 c19 221 60 555 86 703 5 30 14 84
20 120 8 53 66 380 85 480 2 14 18 106 34 205 38 230 45 269 77 445 15 80 28
154 30 165 17 101 26 155 43 245 10 58 22 132 25 165 10 92 57 368 66 384 6
11 13 7 29 -20 11 -19 21 -41 21 -50 0 -9 25 -67 56 -130 84 -172 152 -279
176 -279 18 0 139 93 216 164 116 109 186 162 190 143 6 -32 -152 -468 -258
-707 -49 -111 -217 -521 -250 -610 -18 -47 -65 -168 -105 -270 -40 -102 -98
-252 -130 -335 -31 -82 -78 -206 -105 -275 -82 -213 -220 -664 -220 -720 0
-13 34 -15 277 -12 153 1 293 5 311 8 25 4 35 12 47 40 8 19 59 103 113 187
186 285 421 642 479 727 32 46 99 150 150 230 301 476 467 722 546 806 l57 62
-152 105 c-84 57 -196 128 -248 157 -141 79 -140 78 -140 175 0 78 1 81 28 97
42 25 295 104 423 132 63 14 129 31 146 37 35 12 40 26 48 154 3 44 7 98 10
120 3 22 10 102 15 178 10 132 12 139 38 163 15 13 39 31 53 39 25 14 27 13
32 -8 7 -31 0 -690 -7 -714 -8 -25 -14 -27 -416 -117 -85 -19 -172 -42 -193
-51 -37 -15 -38 -17 -24 -38 8 -12 36 -33 63 -47 114 -58 318 -176 554 -319
13 -7 11 -13 -12 -37 -38 -42 -184 -255 -676 -992 -574 -858 -684 -1027 -697
-1069 l-6 -23 1435 -1 c790 -1 1444 -2 1453 -3 26 -2 55 97 108 359 24 121 53
258 64 305 21 88 24 106 41 255 6 50 13 97 15 105 2 8 11 65 20 125 8 61 20
130 25 155 38 189 58 345 66 525 4 83 8 170 9 195 8 162 -64 428 -138 509 -12
13 -78 51 -147 85 -69 35 -163 84 -210 110 -47 27 -128 72 -180 101 -163 90
-355 202 -467 274 -632 400 -613 388 -613 400 0 4 17 16 38 27 20 10 44 25 54
32 14 11 21 11 50 -5 107 -58 401 27 554 160 24 21 44 47 44 56 0 16 -5 17
-80 3 -66 -12 -88 -12 -125 -2 -70 19 -73 29 -42 120 15 44 27 86 27 95 0 22
48 38 95 30 22 -3 69 -15 105 -26 105 -33 271 -27 377 13 56 21 136 78 172
124 21 26 37 71 30 79 -2 2 -24 -6 -48 -17 -105 -48 -240 -44 -356 10 -105 50
-157 110 -185 214 -17 66 -6 124 37 189 58 87 140 296 193 494 27 100 38 313
21 409 -29 167 -120 370 -239 535 -68 93 -70 100 -25 61 69 -60 232 -277 280
-375 29 -58 69 -187 89 -285 30 -154 3 -343 -85 -585 -22 -60 -38 -111 -36
-113 17 -17 149 122 191 203 60 113 85 208 91 341 7 151 -14 288 -66 429 -101
275 -317 537 -589 712 -89 58 -102 74 -80 101 8 9 13 25 11 34 -5 21 -85 33
-193 29 -142 -4 -175 -4 -225 2 -27 4 -86 9 -130 12 -128 10 -229 23 -307 41
-402 91 -851 235 -1073 346 -209 104 -365 194 -470 273 -85 64 -209 176 -260
235 l-20 23 35 -18 c19 -9 114 -68 210 -130 284 -182 570 -322 895 -438 93
-33 196 -65 234 -72 9 -2 16 -4 16 -5 0 -1 7 -3 15 -5 8 -2 62 -18 120 -36
104 -31 162 -46 210 -55 14 -3 61 -14 105 -26 44 -11 91 -22 105 -24 14 -3 36
-7 50 -9 14 -3 39 -8 55 -10 17 -3 41 -7 55 -10 14 -3 48 -7 75 -10 28 -4 79
-11 114 -16 36 -6 106 -7 156 -3 71 5 104 3 148 -10 107 -31 154 -36 255 -26
130 13 160 23 231 76 117 88 150 253 60 300 -31 15 -32 14 -29 -29 3 -46 -20
-95 -60 -130 -104 -89 -231 -89 -489 0 -282 96 -274 92 -290 144 -64 196 -184
456 -273 586 -161 240 -394 441 -659 571 -127 62 -206 90 -369 132 -119 31
-134 32 -325 33 -158 1 -216 -3 -275 -17 -139 -33 -148 -32 -213 13 -115 79
-260 109 -537 111 -108 0 -198 -1 -200 -4z m295 -157 c61 -23 158 -107 185
-160 27 -52 28 -142 3 -199 l-20 -45 -7 50 c-11 71 -36 114 -106 178 -93 87
-252 156 -385 170 l-30 3 25 12 c15 7 77 11 155 11 102 -1 141 -5 180 -20z
m286 -18 c74 -48 111 -93 116 -144 3 -25 1 -53 -5 -62 -8 -15 -12 -8 -22 35
-10 44 -25 65 -83 126 -38 41 -65 74 -60 74 5 0 29 -13 54 -29z m-673 -92
c146 -34 275 -115 329 -206 37 -63 39 -156 6 -218 l-22 -40 -1 44 c0 25 -10
64 -22 89 -48 94 -210 209 -368 261 -108 35 -203 57 -235 55 -57 -5 2 24 64
31 31 4 61 8 66 10 15 6 91 -5 183 -26z m1470 -5 c53 -8 147 -29 207 -46 120
-33 319 -122 349 -156 25 -29 11 -28 -59 3 -78 35 -250 82 -365 101 -114 19
-292 25 -375 13 -135 -19 -201 -32 -222 -41 -41 -20 -46 -4 -12 41 38 49 75
67 184 86 98 18 179 18 293 -1z m-1783 -159 c33 -4 67 -9 75 -10 190 -34 390
-194 390 -312 0 -27 0 -27 -42 18 -76 81 -172 137 -293 169 -61 16 -105 21
-204 20 -188 -2 -334 -45 -449 -132 -118 -89 -187 -172 -242 -291 -36 -78 -46
-117 -30 -117 13 0 41 28 139 139 79 90 148 141 250 186 116 51 193 69 301 69
158 1 292 -45 363 -123 20 -23 37 -43 37 -46 0 -3 -24 8 -52 24 -75 43 -157
62 -281 65 -103 4 -133 -1 -202 -30 -17 -7 -43 -18 -59 -23 -95 -37 -241 -161
-347 -296 -143 -182 -382 -559 -456 -719 -117 -254 -237 -496 -246 -496 -21 0
30 259 78 400 18 52 60 163 95 245 34 83 77 193 95 245 19 52 50 133 70 180
20 47 48 114 61 149 50 133 167 323 252 414 216 228 420 307 697 272z m1510
-166 c250 -36 682 -181 915 -307 144 -77 340 -211 340 -232 0 -5 -37 9 -83 30
-46 21 -139 60 -208 86 -68 26 -173 66 -234 89 -60 23 -186 66 -280 94 -93 29
-210 66 -260 81 -49 16 -155 48 -235 71 -80 23 -163 49 -185 59 -22 10 -49 21
-60 26 -54 21 150 24 290 3z m-245 -195 c103 -32 279 -101 460 -182 160 -70
401 -165 560 -220 465 -161 915 -342 1000 -402 36 -25 39 -40 8 -35 -13 2 -70
11 -128 20 -109 16 -142 24 -395 94 -305 86 -736 240 -939 336 -150 72 -382
196 -536 286 -80 47 -165 98 -190 112 -91 52 -92 57 -5 36 44 -10 118 -31 165
-45z m-486 -118 c76 -45 300 -305 388 -450 66 -110 127 -194 179 -244 31 -30
32 -32 10 -32 -28 0 -243 53 -297 74 -21 8 -68 17 -104 20 -36 3 -92 15 -125
27 -50 19 -81 22 -190 23 -142 0 -172 -4 -287 -40 -134 -42 -245 -135 -302
-252 -17 -36 -24 -42 -41 -36 -27 9 -83 6 -121 -6 -28 -9 -37 -7 -84 25 -29
19 -73 40 -97 47 -41 10 -44 13 -38 37 3 14 12 63 20 109 31 176 77 360 104
417 15 33 54 88 85 123 128 137 345 190 474 115 l44 -25 71 38 c123 65 234 75
311 30z m776 -596 c166 -100 214 -133 325 -220 39 -30 91 -65 116 -78 25 -13
79 -50 120 -82 86 -69 130 -97 294 -189 402 -227 494 -289 631 -425 126 -125
184 -209 237 -342 58 -143 70 -205 70 -334 -1 -128 -21 -209 -75 -311 -44 -84
-166 -199 -198 -187 -4 2 9 32 31 67 74 122 109 249 109 397 0 228 -120 461
-331 644 -91 79 -342 258 -454 325 -44 27 -125 78 -180 115 -55 37 -158 105
-230 153 -254 168 -383 273 -506 412 -102 115 -141 163 -123 153 5 -3 79 -47
164 -98z m-852 -139 c95 -49 182 -160 182 -233 0 -34 -6 -35 -161 -43 -133 -6
-197 -12 -289 -28 -63 -12 -68 -15 -128 -79 -34 -37 -62 -72 -62 -78 0 -14 35
-12 100 5 76 20 101 19 107 -5 7 -27 40 -34 128 -27 83 6 184 44 255 96 l45
33 3 -29 c2 -16 -6 -55 -18 -85 -61 -163 -177 -261 -325 -275 -78 -7 -145 14
-216 67 -98 74 -149 175 -154 312 -7 154 80 288 239 369 58 29 65 31 156 26
72 -3 105 -9 138 -26z m1357 -99 c90 -21 313 -82 355 -97 54 -20 140 -47 275
-85 173 -49 304 -99 480 -185 196 -96 320 -175 423 -270 71 -66 223 -258 276
-347 54 -93 97 -256 95 -366 -1 -75 2 -82 -34 74 -63 270 -299 545 -623 728
-107 60 -180 91 -412 172 -85 30 -200 72 -255 94 -55 22 -131 48 -170 59 -116
32 -265 89 -314 120 -25 16 -62 36 -82 45 -43 20 -106 82 -74 73 11 -4 38 -10
60 -15z m-900 -38 c164 -24 449 -109 501 -149 29 -22 32 -30 38 -102 13 -162
68 -276 207 -430 92 -103 99 -116 99 -203 0 -107 -13 -123 -94 -118 l-61 3 -8
-45 c-21 -108 -61 -258 -83 -308 -38 -86 -106 -174 -170 -218 -131 -92 -336
-189 -629 -299 -326 -122 -523 -176 -657 -178 -71 -1 -82 2 -161 41 -46 23
-107 62 -135 87 -43 39 -53 55 -72 118 -11 39 -39 119 -61 177 -87 225 -143
410 -164 540 -24 153 -24 153 38 94 52 -51 95 -84 109 -84 4 0 12 9 18 20 16
29 -7 73 -85 160 -99 110 -106 143 -50 220 78 107 155 308 155 408 0 36 5 54
20 67 19 17 22 18 55 2 21 -10 36 -25 39 -39 39 -205 69 -275 159 -374 98
-107 242 -163 386 -150 162 14 338 140 414 297 54 110 67 173 67 330 0 150 1
152 60 143 14 -2 43 -7 65 -10z m-1630 -60 c71 -28 148 -91 179 -145 l20 -34
-42 37 c-67 60 -118 82 -192 83 -60 0 -70 -3 -115 -36 -28 -19 -61 -55 -75
-80 -22 -39 -25 -55 -25 -154 0 -106 1 -113 36 -185 44 -91 105 -154 191 -195
71 -34 112 -79 88 -96 -24 -16 -131 -4 -184 21 -108 52 -201 169 -242 305 -22
72 -25 241 -5 298 31 90 131 178 222 196 68 13 74 13 144 -15z m2500 -389
c168 -139 218 -235 217 -425 0 -80 -7 -127 -25 -195 -35 -129 -118 -405 -173
-580 -93 -296 -98 -321 -97 -505 0 -194 16 -290 68 -397 45 -97 92 -166 166
-247 33 -36 57 -66 52 -66 -28 0 -130 75 -203 149 -148 150 -210 308 -210 534
1 219 28 339 156 692 113 313 130 369 155 498 18 92 19 119 10 190 -17 135
-33 171 -127 292 -86 110 -110 145 -99 145 4 0 53 -38 110 -85z m-2858 -459
c-13 -117 -84 -282 -232 -541 -33 -57 -122 -272 -144 -345 -12 -43 -29 -164
-35 -251 -4 -62 -32 -149 -48 -149 -26 0 -58 150 -58 275 0 52 4 96 9 99 5 3
12 26 15 51 9 56 88 274 117 323 12 20 73 114 135 207 62 94 138 221 169 283
33 64 61 109 67 106 6 -4 8 -28 5 -58z m3549 -54 c11 -65 11 -518 0 -627 -43
-446 2 -708 154 -899 103 -130 241 -208 418 -235 l47 -7 -54 -17 c-159 -49
-360 22 -521 183 -96 96 -143 178 -181 315 -39 146 -30 361 25 605 10 41 19
93 22 115 2 22 6 54 9 71 14 86 35 352 35 452 0 108 1 112 19 102 13 -7 22
-26 27 -58z m-271 11 c4 -10 6 -72 6 -138 -1 -122 -18 -235 -84 -570 -30 -151
-31 -172 -31 -380 1 -238 9 -299 56 -440 100 -305 318 -479 632 -505 l81 -6
-40 -18 c-33 -15 -60 -17 -170 -14 -115 4 -140 9 -217 37 -166 62 -261 134
-375 285 -88 116 -123 187 -154 306 -19 75 -21 102 -16 235 3 82 10 168 16
190 5 22 21 87 35 145 14 58 37 139 51 180 37 109 81 279 105 410 45 244 81
341 105 283z m-768 -950 c-17 -65 -21 -108 -21 -253 -1 -236 25 -338 118 -474
45 -66 45 -85 0 -123 -68 -59 -225 -159 -364 -233 -74 -40 -168 -94 -208 -121
-40 -27 -74 -49 -76 -49 -2 0 -6 35 -10 78 -4 42 -14 111 -22 152 -20 99 -117
395 -162 493 -19 42 -33 79 -31 80 2 2 45 18 94 36 179 66 321 160 555 369 74
67 138 121 141 121 4 1 -2 -34 -14 -76z m-1839 -84 c43 -28 181 -101 307 -164
213 -104 285 -148 285 -174 0 -6 -11 -18 -25 -27 -42 -27 -113 -13 -258 52
-104 47 -141 69 -200 122 -40 35 -89 76 -111 89 -38 24 -41 25 -135 14 -137
-15 -394 -23 -410 -12 -14 9 31 24 234 80 61 16 137 39 170 49 33 11 62 20 63
21 2 1 38 -22 80 -50z m-743 -218 c28 -5 191 -6 363 -3 257 4 317 3 339 -9 26
-14 328 -336 356 -380 8 -13 18 -44 22 -69 10 -64 30 -130 54 -178 25 -49 27
-90 6 -99 -9 -3 -36 2 -61 12 -65 25 -94 73 -104 174 -5 43 -17 95 -27 114
-10 20 -80 106 -156 191 -143 162 -159 173 -203 142 -16 -12 -71 -13 -339 -5
-296 8 -405 4 -459 -17 -34 -13 -13 81 27 125 23 25 53 25 182 2z m582 -158
c7 -10 32 -45 55 -78 23 -33 71 -100 108 -150 96 -129 98 -133 110 -210 6 -38
27 -109 46 -157 41 -100 41 -122 1 -126 -76 -9 -119 74 -142 267 -7 65 -23 97
-85 176 -65 83 -146 214 -154 249 -11 44 33 64 61 29z m-459 -69 l264 -7 26
-41 c14 -23 67 -97 116 -165 86 -118 92 -129 118 -230 16 -58 31 -125 35 -148
l6 -43 -36 0 c-48 0 -102 52 -117 112 -6 24 -15 62 -21 84 -11 42 -40 82 -142
195 l-56 62 -108 -7 c-115 -8 -185 -23 -255 -54 -38 -16 -45 -24 -56 -66 -7
-27 -21 -128 -32 -225 -22 -201 -38 -271 -80 -356 -67 -134 -138 -201 -272
-256 -43 -17 -78 -37 -78 -45 0 -12 84 -44 116 -44 6 0 13 -6 15 -12 2 -7 3
-196 1 -420 l-3 -406 -237 -4 c-130 -2 -239 -2 -241 -1 -9 5 -3 748 7 875 l10
137 104 183 c58 101 131 230 163 288 32 58 75 132 96 166 21 34 55 94 77 135
76 142 154 274 179 300 24 26 25 26 81 13 35 -9 159 -16 320 -20z m1676 -446
c3 -29 8 -82 11 -117 4 -35 17 -98 30 -140 43 -137 72 -385 49 -422 -13 -22
-96 129 -119 217 -15 60 -32 87 -46 78 -5 -3 -49 -64 -98 -137 -95 -141 -156
-217 -173 -217 -25 0 9 105 87 270 96 202 124 268 155 365 36 112 59 150 92
154 4 1 9 -23 12 -51z m1127 -27 c34 -28 91 -66 128 -85 102 -55 98 -47 61
-102 -91 -134 -297 -353 -459 -488 -40 -33 -101 -84 -135 -113 l-61 -51 -28
45 c-16 25 -38 64 -50 87 -12 23 -49 86 -83 141 -89 146 -114 198 -103 217 9
15 84 62 369 228 69 40 152 92 185 115 98 69 98 69 176 6z m-2519 -276 c51
-72 135 -133 218 -159 203 -64 305 -62 524 13 209 71 229 69 187 -26 -24 -53
-83 -96 -226 -168 -60 -30 -144 -73 -185 -95 -41 -21 -209 -101 -372 -176
-164 -76 -314 -151 -334 -167 -57 -47 -81 -115 -134 -379 -38 -187 -38 -217
-2 -259 l27 -33 3 -196 3 -196 -83 12 c-46 7 -86 13 -90 13 -5 1 -8 111 -8
246 l0 245 -90 0 -90 0 -2 333 c-3 511 -7 487 86 549 226 152 395 314 460 439
54 103 58 108 70 73 5 -16 22 -47 38 -69z m2981 47 c9 -8 17 -26 17 -39 0 -14
-33 -93 -74 -176 -41 -84 -91 -196 -111 -251 -20 -54 -62 -155 -92 -225 -30
-69 -86 -202 -123 -296 -38 -93 -99 -237 -135 -320 -37 -82 -87 -197 -112
-255 -25 -58 -70 -163 -101 -235 -67 -158 -116 -274 -214 -510 -186 -447 -281
-672 -294 -696 -7 -15 -52 -122 -99 -239 -47 -116 -89 -219 -95 -228 -21 -36
3 62 84 343 56 193 101 323 241 690 59 154 133 350 165 435 32 85 95 243 140
350 45 107 131 312 190 455 60 143 136 323 170 400 77 175 127 297 184 448 48
128 143 306 188 350 28 29 36 28 71 -1z m1990 -904 c26 -13 18 -56 -14 -80
-14 -11 -49 -21 -80 -24 -30 -3 -107 -23 -171 -44 -303 -100 -571 -353 -858
-810 -129 -204 -304 -559 -285 -578 2 -3 35 14 72 36 430 256 671 347 981 369
l82 6 0 -25 c0 -19 -8 -28 -37 -41 -109 -44 -155 -62 -228 -87 -134 -46 -272
-107 -450 -199 -153 -79 -218 -116 -473 -268 -90 -53 -118 -59 -116 -23 14
294 134 652 323 965 163 270 329 469 490 590 134 101 315 189 456 221 65 14
275 9 308 -8z m-5615 -718 c2 -41 1 -98 -3 -126 l-6 -51 -391 -7 c-214 -4
-392 -5 -395 -2 -3 3 -8 64 -11 136 l-5 130 404 -2 404 -3 3 -75z m5531 -778
c45 -7 70 -32 32 -32 -11 0 -30 -4 -43 -9 -13 -5 -84 -28 -158 -51 -351 -108
-619 -213 -832 -326 -79 -42 -269 -159 -422 -261 -153 -102 -285 -187 -293
-190 -29 -11 14 107 55 151 38 40 330 262 432 328 391 254 953 432 1229 390z"/>
<path d="M4278 7738 c-70 -9 -126 -36 -183 -89 -52 -48 -68 -86 -51 -120 15
-30 68 -58 74 -39 3 7 20 30 38 50 38 42 121 74 220 85 43 5 63 12 76 28 9 12
13 24 8 25 -6 2 -10 12 -10 22 0 9 -6 22 -12 27 -19 15 -95 20 -160 11z"/>
<path d="M3650 6797 c0 -35 51 -84 125 -118 70 -34 105 -36 128 -11 24 27 21
36 -20 72 -49 43 -112 70 -179 77 -53 6 -54 5 -54 -20z"/>
<path d="M3785 6428 c-16 -5 -50 -10 -75 -12 -25 -2 -48 -5 -52 -5 -20 -3 -39
-68 -41 -137 -1 -63 2 -77 20 -95 l21 -22 37 28 c23 18 60 33 101 41 68 12 98
12 285 -7 123 -12 189 -7 189 15 0 14 -77 54 -265 136 -128 57 -178 70 -220
58z"/>
<path d="M3770 6083 c-70 -9 -78 -41 -24 -94 34 -33 38 -34 101 -31 102 3 212
63 188 102 -15 25 -149 37 -265 23z"/>
<path d="M8182 4563 c-63 -22 -157 -117 -172 -174 -17 -62 -8 -175 18 -225 85
-166 326 -192 467 -50 203 204 -37 547 -313 449z"/>
<path d="M1849 2456 c-3 -3 -53 -6 -111 -7 -84 -1 -108 -4 -112 -16 -3 -8 -6
-330 -6 -716 l0 -702 587 3 c324 1 593 4 599 6 16 6 20 1401 3 1412 -7 4 -217
8 -468 8 -251 1 -463 5 -472 9 -8 4 -17 5 -20 3z"/>
<path d="M8568 1289 c-12 -7 -18 -22 -18 -49 0 -47 35 -80 84 -80 41 0 56 16
56 57 0 62 -69 103 -122 72z m65 -30 c5 -17 3 -18 -9 -8 -8 6 -17 9 -21 5 -3
-3 -1 -6 5 -6 7 0 12 -17 12 -42 0 -40 0 -41 -20 -23 -24 22 -26 58 -4 79 21
21 31 20 37 -5z m37 -35 c0 -12 -4 -25 -9 -28 -4 -3 -6 6 -3 19 2 14 -2 33 -9
43 -13 15 -12 16 4 3 9 -7 17 -24 17 -37z"/>
<path d="M8591 1233 c0 -4 4 -17 9 -28 8 -19 9 -19 9 2 1 12 -3 25 -9 28 -5 3
-10 3 -9 -2z"/>
</g>
</svg>
